<svg version="1.1" id="Layer_1" xmlns="http://www.w3.org/2000/svg" xmlns:xlink="http://www.w3.org/1999/xlink" x="0px" y="0px"
	 width="100%" viewBox="0 0 288 544" enable-background="new 0 0 288 544" xml:space="preserve">
<path fill="#000000" opacity="1.000000" stroke="none" 
	d="
M151.375000,545.000000 
	C149.393738,543.029785 147.333328,541.609131 145.186447,540.325378 
	C136.173264,534.935730 127.377968,529.247925 119.180618,522.640320 
	C114.577194,518.929688 109.131226,516.710327 103.379265,515.470825 
	C99.412811,514.616089 97.022514,512.668213 95.726219,508.650970 
	C93.942497,503.123077 91.549759,497.786407 89.314972,492.410645 
	C86.333450,485.238586 80.583015,481.163666 73.407249,479.098267 
	C69.068909,477.849579 66.800072,475.764130 66.265594,470.935181 
	C65.050682,459.958618 57.039238,453.255219 49.575966,446.323090 
	C47.901375,444.767639 45.604504,443.824219 44.718994,441.587738 
	C44.976471,439.846100 46.357594,439.485077 47.540924,438.928070 
	C63.404373,431.461212 79.768936,425.433441 96.937691,421.704895 
	C98.560448,421.352509 100.129997,420.524292 101.752327,420.436615 
	C117.516922,419.584564 121.679665,407.523071 123.180954,395.563873 
	C124.553200,384.632568 129.329636,376.608826 135.642593,368.230377 
	C157.461380,339.272919 183.155594,313.896027 208.111298,287.805359 
	C218.581375,276.859100 228.516891,265.398499 238.601608,254.088089 
	C242.992233,249.163818 247.624619,244.546005 252.751495,240.139145 
	C254.375809,242.698975 252.947739,244.222641 252.185669,245.736176 
	C246.425049,257.177246 240.962646,268.760315 234.985580,280.102295 
	C219.264038,309.935242 203.415558,339.741333 190.414734,370.887024 
	C182.729599,389.298096 174.889923,407.661438 168.472855,426.616211 
	C165.134460,436.477081 160.392548,445.906525 156.767014,455.731812 
	C154.755264,461.183655 152.592697,466.509064 153.629395,472.596069 
	C153.930923,474.366516 152.867676,476.369415 153.087814,478.719574 
	C157.139938,474.044891 161.588287,469.653564 165.171219,464.643341 
	C176.770340,448.423798 191.478027,435.026245 204.881989,420.459412 
	C209.917297,414.987305 213.472794,409.184082 215.006744,401.955414 
	C220.640625,375.405731 229.525543,349.714813 235.846512,323.341003 
	C242.242691,296.653351 248.895096,270.027161 255.314331,243.344971 
	C256.824982,237.065826 255.718918,230.868637 252.052216,225.646805 
	C245.627930,216.497818 239.838806,206.974854 234.104446,197.402100 
	C233.352722,196.147171 232.660156,194.750381 231.101974,194.236450 
	C226.364914,197.784378 226.310486,200.053345 228.374802,205.731735 
	C231.463196,214.227112 236.584732,222.109207 236.700760,231.575867 
	C236.755508,236.044220 237.108139,240.519516 236.932587,244.976181 
	C236.822723,247.765091 235.015671,249.842697 232.666000,251.405441 
	C208.817444,267.266998 184.709641,282.709961 160.060791,297.313568 
	C143.745255,306.979950 127.665611,317.044312 111.465858,326.906708 
	C109.794930,327.923981 108.352425,329.431580 106.019989,329.631561 
	C105.377960,327.337097 106.936348,325.818359 107.939590,324.265472 
	C110.831474,319.789185 113.925835,315.444305 116.885635,311.011078 
	C120.064781,306.249298 122.373665,301.070038 123.288986,295.417145 
	C125.114471,284.143127 128.761841,273.480438 133.589706,263.182281 
	C140.417374,248.618393 142.982117,232.681931 148.278168,217.608582 
	C154.842758,198.924820 160.704926,179.993713 166.823044,161.154022 
	C168.358887,156.424667 169.599762,151.612793 169.707123,146.366074 
	C173.392014,145.319733 176.287170,143.316681 178.281235,139.978607 
	C180.203323,136.761032 181.329987,133.922989 179.979935,129.825363 
	C177.355255,121.859001 177.619125,113.442291 177.704651,105.088837 
	C177.892136,86.779533 178.132706,68.472870 179.753464,50.226917 
	C180.324661,43.796539 181.556519,37.424847 181.951584,30.706850 
	C180.777145,32.904167 179.684448,35.149994 178.414291,37.290512 
	C172.473236,47.302635 166.735336,57.449471 160.398148,67.206055 
	C157.486313,71.689072 154.652817,76.280647 152.435303,81.015160 
	C149.049286,88.244530 144.328110,94.672585 140.476044,101.564507 
	C136.398758,108.859390 133.629852,116.867714 128.403702,123.670357 
	C130.572983,101.261932 140.631836,80.619339 143.372681,57.565586 
	C129.241165,60.937428 115.614609,64.194633 101.983498,67.432648 
	C100.539299,67.775703 99.052643,68.309647 97.612595,68.235100 
	C92.047646,67.947075 90.239395,65.197365 92.840668,60.327709 
	C99.577843,47.715576 106.618484,35.265812 113.485260,22.722361 
	C114.443344,20.972231 116.151291,20.239292 117.625702,19.223753 
	C126.252655,13.281734 134.937149,7.423249 143.801117,1.268287 
	C147.030594,1.000000 150.061188,1.000000 153.682617,1.364480 
	C156.128372,8.362560 157.983322,14.996161 160.177963,22.844612 
	C163.686737,15.416228 166.673264,9.093505 169.939621,2.178335 
	C171.588470,4.131507 172.509674,5.279774 173.490540,6.374592 
	C177.382065,10.718157 181.022522,15.786852 186.420395,17.888309 
	C190.091522,19.317522 192.210052,21.501455 194.111633,24.353210 
	C200.746780,34.303833 206.582092,44.823368 215.214706,53.326271 
	C218.397125,56.460857 221.739914,59.662212 216.115921,63.698208 
	C215.438400,64.184410 215.245926,65.448715 214.984329,66.395409 
	C213.488342,71.809196 210.759094,76.347519 206.522629,80.174973 
	C201.641296,84.585037 198.154694,90.081146 196.218460,96.425865 
	C195.425781,99.023323 194.273697,101.444687 192.608902,103.497490 
	C188.548767,108.503891 186.463257,114.521812 183.842636,120.239265 
	C182.501526,123.165154 181.944580,126.530067 185.032166,129.167236 
	C187.405090,127.777626 188.396378,125.618774 189.579834,123.640305 
	C197.791443,109.912361 205.971222,96.166084 218.641068,85.866493 
	C222.513016,82.718925 226.706802,79.860031 230.072342,76.236557 
	C232.128769,74.022514 233.529541,74.368164 235.564377,75.429230 
	C238.204971,76.806152 238.983521,79.065559 239.403076,81.929283 
	C241.366592,95.331779 243.755188,108.620399 254.051758,118.746155 
	C254.586411,119.271935 254.690155,120.235909 254.673889,121.129669 
	C245.245605,126.464287 237.140198,133.478683 227.815475,138.025513 
	C213.610077,144.952194 205.206696,156.574524 198.014679,169.652145 
	C192.025818,180.542023 188.724060,192.609756 182.307205,203.440796 
	C173.733948,217.911621 164.433548,231.755905 153.993683,244.895630 
	C151.389481,248.173340 149.086227,251.737213 149.158020,256.140228 
	C149.191940,258.220490 149.170776,260.802490 151.767700,261.556366 
	C154.214020,262.266541 155.259125,260.088623 156.352585,258.467773 
	C159.143509,254.330643 161.690628,250.021317 164.612900,245.981720 
	C194.746933,204.326126 226.302124,163.698837 255.366272,121.020493 
	C256.346802,121.542519 257.254791,121.924431 257.540619,122.578308 
	C263.111816,135.323425 270.131958,147.572845 272.018280,161.634506 
	C272.787354,167.367355 274.608124,172.684830 277.338715,177.595291 
	C279.677795,181.801712 280.418579,186.247314 281.348938,190.796066 
	C283.302734,200.349106 284.548096,210.117218 289.000000,219.000000 
	C289.000000,263.687561 289.000000,308.375122 288.812134,353.846313 
	C286.958282,363.643555 283.259308,372.061188 280.842072,380.821533 
	C275.232788,401.149963 267.762177,420.939209 263.321198,441.595642 
	C262.657715,444.681702 261.087433,446.953278 258.365936,448.710693 
	C252.591904,452.439270 247.927322,457.480072 243.284943,462.465790 
	C232.405304,474.149902 221.105316,485.390625 208.514435,495.228058 
	C203.766907,498.937347 199.926163,503.057434 198.433517,509.018555 
	C197.791611,511.582062 196.421204,513.374023 193.930420,514.593628 
	C178.624451,522.088135 166.076889,533.243042 154.000000,545.000000 
	C153.250000,545.000000 152.500000,545.000000 151.375000,545.000000 
z"/>
<path fill="#000000" opacity="1.000000" stroke="none" 
	d="
M71.870827,92.849541 
	C75.639175,90.049606 78.949333,87.312569 81.521828,83.749435 
	C83.731247,80.689209 85.948875,81.007965 87.591385,84.241936 
	C92.112984,93.144608 96.543175,102.094124 100.957603,111.050690 
	C104.338356,117.910027 107.697014,124.781570 110.947769,131.702972 
	C112.176575,134.319305 113.780563,135.237122 116.458488,133.838684 
	C120.506897,131.724579 124.173378,131.277191 128.434845,134.208282 
	C131.612366,136.393814 135.907822,136.892487 139.571381,138.456375 
	C141.703995,139.366730 143.869049,140.860809 143.573822,143.624359 
	C143.267761,146.489090 140.639252,147.113205 138.413406,147.589645 
	C136.506912,147.997726 134.362289,148.160904 132.491364,147.719162 
	C123.821518,145.672180 117.405518,149.208740 114.029137,156.660019 
	C110.472267,164.509598 105.888786,166.486282 97.334991,165.386093 
	C86.479866,163.989929 76.466446,168.796722 67.412148,174.654129 
	C62.336922,177.937393 61.865765,182.522644 65.094437,187.650711 
	C73.187881,200.505402 73.015656,200.621887 60.457191,208.630875 
	C50.174961,215.188232 39.028496,220.082840 28.421198,226.003250 
	C25.276348,227.758545 22.814234,230.739822 18.360157,231.553680 
	C18.036545,225.070419 19.355434,218.947708 20.056393,212.826187 
	C20.716589,207.060623 21.866512,201.343109 22.998476,195.643677 
	C23.436844,193.436523 23.758694,191.449158 22.358074,189.453705 
	C20.857162,187.315369 22.140255,185.190765 22.906849,183.276184 
	C28.693073,168.824753 34.747971,154.479538 40.415691,139.982574 
	C43.670761,131.656708 47.618813,123.599129 49.867481,114.857994 
	C50.800701,111.230316 54.359341,109.029694 57.127316,106.829544 
	C62.380119,102.654305 66.773468,97.662598 71.870827,92.849541 
z"/>
<path fill="#000000" opacity="1.000000" stroke="none" 
	d="
M60.566181,256.577576 
	C70.831161,245.182877 77.375366,231.824646 84.502357,218.862930 
	C90.352936,208.222610 95.811714,197.366898 101.451233,186.610382 
	C101.899559,185.755280 102.090691,184.660202 104.276794,184.273880 
	C106.763275,189.037506 108.296745,194.189240 107.522293,199.890594 
	C107.046288,203.394867 105.841019,206.822220 103.733833,209.593842 
	C95.777649,220.058807 90.929298,231.989227 86.129234,244.085129 
	C83.276955,251.272751 78.206429,257.470520 74.551079,264.385864 
	C71.179863,270.763672 68.073944,277.171661 66.853401,284.263641 
	C66.142311,288.395447 63.508240,291.445801 61.993206,295.095581 
	C56.200371,309.050720 52.017460,323.985565 42.882778,336.095459 
	C35.095619,346.418915 30.057796,358.156342 22.979364,368.756042 
	C22.639277,369.265350 22.045818,369.605469 21.351044,370.217560 
	C19.078930,366.434723 19.122089,362.376526 18.517523,358.528168 
	C16.290457,344.351776 11.784714,330.739807 8.363419,316.860565 
	C4.827004,302.514374 4.769879,302.459839 17.971266,296.235474 
	C28.205439,291.410095 38.453911,286.601501 48.838936,282.116333 
	C53.003632,280.317627 54.806385,277.467896 53.355511,273.520630 
	C50.428482,265.557373 53.036850,260.323853 60.566181,256.577576 
M42.294342,315.048981 
	C42.617107,313.575012 43.055943,312.022827 41.443474,311.019409 
	C39.660084,309.909637 38.288013,311.137848 36.920898,312.046417 
	C30.692686,316.185699 26.491037,334.950073 30.250116,341.830109 
	C30.301704,341.924530 30.547306,341.912994 31.530691,342.153503 
	C35.003052,333.443359 38.526978,324.603851 42.294342,315.048981 
z"/>
<path fill="#000000" opacity="1.000000" stroke="none" 
	d="
M35.434250,410.474854 
	C31.701794,400.264587 26.235544,391.245850 22.641039,381.364502 
	C20.894650,376.563629 21.523390,374.018433 26.217329,371.465363 
	C38.198368,364.948669 51.088833,360.292084 62.705479,353.024536 
	C72.145287,347.118866 81.937271,341.774445 91.597992,336.224457 
	C95.297531,334.099091 98.959160,331.842529 104.575981,330.409882 
	C85.144028,367.823090 62.791718,402.118622 44.490402,438.936890 
	C42.106274,429.082733 39.867477,419.633057 35.434250,410.474854 
z"/>
</svg>